<svg xmlns="http://www.w3.org/2000/svg" x="0px" y="0px"
width="50" height="50"
viewBox="0 0 226 226"
style=" fill:#000000;"><g fill="none" fill-rule="nonzero" stroke="none" stroke-width="1" stroke-linecap="butt" stroke-linejoin="miter" stroke-miterlimit="10" stroke-dasharray="" stroke-dashoffset="0" font-family="none" font-weight="none" font-size="none" text-anchor="none" style="mix-blend-mode: normal"><path d="M0,226v-226h226v226z" fill="none"></path><path d="M0,113c0,-62.40818 50.59182,-113 113,-113c62.40818,0 113,50.59182 113,113c0,62.40818 -50.59182,113 -113,113c-62.40818,0 -113,-50.59182 -113,-113zM113,221.48c59.91185,0 108.48,-48.56815 108.48,-108.48c0,-59.91185 -48.56815,-108.48 -108.48,-108.48c-59.91185,0 -108.48,48.56815 -108.48,108.48c0,59.91185 48.56815,108.48 108.48,108.48z" fill="#000000"></path><g fill="#000000"><path d="M132.30063,74.3992h13.786c1.52197,0 2.7572,-1.23523 2.7572,-2.7572v-18.57526c0,-1.44477 -1.11115,-2.64691 -2.55041,-2.74893c-4.38671,-0.31156 -12.95608,-0.73342 -19.11842,-0.73342c-16.93197,0 -27.96077,10.1465 -27.96077,28.58665v18.28575h-19.3004c-1.52197,0 -2.7572,1.23523 -2.7572,2.7572v19.3004c0,1.52197 1.23523,2.7572 2.7572,2.7572h19.3004v52.3868c0,1.52197 1.23523,2.7572 2.7572,2.7572h19.3004c1.52197,0 2.7572,-1.23523 2.7572,-2.7572v-52.3868h19.9125c1.40617,0 2.58625,-1.05601 2.74066,-2.45391l2.1451,-19.3004c0.18198,-1.63226 -1.09737,-3.06049 -2.74066,-3.06049h-22.0576v-13.786c0,-4.56868 3.70292,-8.2716 8.2716,-8.2716z"></path></g><path d="M0,226v-226h226v226z" fill="none"></path><path d="M4.52,221.48v-216.96h216.96v216.96z" fill="none"></path><path d="M4.52,226c-2.49633,0 -4.52,-2.02367 -4.52,-4.52v-216.96c0,-2.49633 2.02367,-4.52 4.52,-4.52h216.96c2.49633,0 4.52,2.02367 4.52,4.52v216.96c0,2.49633 -2.02367,4.52 -4.52,4.52z" fill="none"></path><path d="M9.04,221.48c-2.49633,0 -4.52,-2.02367 -4.52,-4.52v-207.92c0,-2.49633 2.02367,-4.52 4.52,-4.52h207.92c2.49633,0 4.52,2.02367 4.52,4.52v207.92c0,2.49633 -2.02367,4.52 -4.52,4.52z" fill="none"></path><path d="M113,226c-62.40818,0 -113,-50.59182 -113,-113v0c0,-62.40818 50.59182,-113 113,-113v0c62.40818,0 113,50.59182 113,113v0c0,62.40818 -50.59182,113 -113,113z" fill="none"></path><path d="M113,221.48c-59.91185,0 -108.48,-48.56815 -108.48,-108.48v0c0,-59.91185 48.56815,-108.48 108.48,-108.48h0c59.91185,0 108.48,48.56815 108.48,108.48v0c0,59.91185 -48.56815,108.48 -108.48,108.48z" fill="none"></path><path d="M113,226c-62.40818,0 -113,-50.59182 -113,-113v0c0,-62.40818 50.59182,-113 113,-113v0c62.40818,0 113,50.59182 113,113v0c0,62.40818 -50.59182,113 -113,113z" fill="none"></path><path d="M113,221.48c-59.91185,0 -108.48,-48.56815 -108.48,-108.48v0c0,-59.91185 48.56815,-108.48 108.48,-108.48h0c59.91185,0 108.48,48.56815 108.48,108.48v0c0,59.91185 -48.56815,108.48 -108.48,108.48z" fill="none"></path><path d="M113,226c-62.40818,0 -113,-50.59182 -113,-113v0c0,-62.40818 50.59182,-113 113,-113v0c62.40818,0 113,50.59182 113,113v0c0,62.40818 -50.59182,113 -113,113z" fill="none"></path><path d="M113,221.48c-59.91185,0 -108.48,-48.56815 -108.48,-108.48v0c0,-59.91185 48.56815,-108.48 108.48,-108.48h0c59.91185,0 108.48,48.56815 108.48,108.48v0c0,59.91185 -48.56815,108.48 -108.48,108.48z" fill="none"></path><path d="M113,226c-62.40818,0 -113,-50.59182 -113,-113v0c0,-62.40818 50.59182,-113 113,-113v0c62.40818,0 113,50.59182 113,113v0c0,62.40818 -50.59182,113 -113,113z" fill="none"></path><path d="M113,221.48c-59.91185,0 -108.48,-48.56815 -108.48,-108.48v0c0,-59.91185 48.56815,-108.48 108.48,-108.48h0c59.91185,0 108.48,48.56815 108.48,108.48v0c0,59.91185 -48.56815,108.48 -108.48,108.48z" fill="none"></path><path d="M113,226c-62.40818,0 -113,-50.59182 -113,-113v0c0,-62.40818 50.59182,-113 113,-113v0c62.40818,0 113,50.59182 113,113v0c0,62.40818 -50.59182,113 -113,113z" fill="none"></path><path d="M113,221.48c-59.91185,0 -108.48,-48.56815 -108.48,-108.48v0c0,-59.91185 48.56815,-108.48 108.48,-108.48h0c59.91185,0 108.48,48.56815 108.48,108.48v0c0,59.91185 -48.56815,108.48 -108.48,108.48z" fill="none"></path><path d="M113,226c-62.40818,0 -113,-50.59182 -113,-113v0c0,-62.40818 50.59182,-113 113,-113v0c62.40818,0 113,50.59182 113,113v0c0,62.40818 -50.59182,113 -113,113z" fill="none"></path><path d="M113,221.48c-59.91185,0 -108.48,-48.56815 -108.48,-108.48v0c0,-59.91185 48.56815,-108.48 108.48,-108.48h0c59.91185,0 108.48,48.56815 108.48,108.48v0c0,59.91185 -48.56815,108.48 -108.48,108.48z" fill="none"></path><path d="M113,226c-62.40818,0 -113,-50.59182 -113,-113v0c0,-62.40818 50.59182,-113 113,-113v0c62.40818,0 113,50.59182 113,113v0c0,62.40818 -50.59182,113 -113,113z" fill="none"></path><path d="M113,221.48c-59.91185,0 -108.48,-48.56815 -108.48,-108.48v0c0,-59.91185 48.56815,-108.48 108.48,-108.48h0c59.91185,0 108.48,48.56815 108.48,108.48v0c0,59.91185 -48.56815,108.48 -108.48,108.48z" fill="none"></path><path d="M113,226c-62.40818,0 -113,-50.59182 -113,-113v0c0,-62.40818 50.59182,-113 113,-113v0c62.40818,0 113,50.59182 113,113v0c0,62.40818 -50.59182,113 -113,113z" fill="none"></path><path d="M113,221.48c-59.91185,0 -108.48,-48.56815 -108.48,-108.48v0c0,-59.91185 48.56815,-108.48 108.48,-108.48h0c59.91185,0 108.48,48.56815 108.48,108.48v0c0,59.91185 -48.56815,108.48 -108.48,108.48z" fill="none"></path><path d="M113,226c-62.40818,0 -113,-50.59182 -113,-113v0c0,-62.40818 50.59182,-113 113,-113v0c62.40818,0 113,50.59182 113,113v0c0,62.40818 -50.59182,113 -113,113z" fill="none"></path><path d="M113,221.48c-59.91185,0 -108.48,-48.56815 -108.48,-108.48v0c0,-59.91185 48.56815,-108.48 108.48,-108.48h0c59.91185,0 108.48,48.56815 108.48,108.48v0c0,59.91185 -48.56815,108.48 -108.48,108.48z" fill="none"></path><path d="M113,226c-62.40818,0 -113,-50.59182 -113,-113v0c0,-62.40818 50.59182,-113 113,-113v0c62.40818,0 113,50.59182 113,113v0c0,62.40818 -50.59182,113 -113,113z" fill="none"></path><path d="M113,221.48c-59.91185,0 -108.48,-48.56815 -108.48,-108.48v0c0,-59.91185 48.56815,-108.48 108.48,-108.48h0c59.91185,0 108.48,48.56815 108.48,108.48v0c0,59.91185 -48.56815,108.48 -108.48,108.48z" fill="none"></path><path d="M113,226c-62.40818,0 -113,-50.59182 -113,-113v0c0,-62.40818 50.59182,-113 113,-113v0c62.40818,0 113,50.59182 113,113v0c0,62.40818 -50.59182,113 -113,113z" fill="none"></path><path d="M113,221.48c-59.91185,0 -108.48,-48.56815 -108.48,-108.48v0c0,-59.91185 48.56815,-108.48 108.48,-108.48h0c59.91185,0 108.48,48.56815 108.48,108.48v0c0,59.91185 -48.56815,108.48 -108.48,108.48z" fill="none"></path><path d="M113,226c-62.40818,0 -113,-50.59182 -113,-113v0c0,-62.40818 50.59182,-113 113,-113v0c62.40818,0 113,50.59182 113,113v0c0,62.40818 -50.59182,113 -113,113z" fill="none"></path><path d="M113,221.48c-59.91185,0 -108.48,-48.56815 -108.48,-108.48v0c0,-59.91185 48.56815,-108.48 108.48,-108.48h0c59.91185,0 108.48,48.56815 108.48,108.48v0c0,59.91185 -48.56815,108.48 -108.48,108.48z" fill="none"></path><path d="M113,226c-62.40818,0 -113,-50.59182 -113,-113v0c0,-62.40818 50.59182,-113 113,-113v0c62.40818,0 113,50.59182 113,113v0c0,62.40818 -50.59182,113 -113,113z" fill="none"></path><path d="M113,221.48c-59.91185,0 -108.48,-48.56815 -108.48,-108.48v0c0,-59.91185 48.56815,-108.48 108.48,-108.48h0c59.91185,0 108.48,48.56815 108.48,108.48v0c0,59.91185 -48.56815,108.48 -108.48,108.48z" fill="none"></path><path d="M113,226c-62.40818,0 -113,-50.59182 -113,-113v0c0,-62.40818 50.59182,-113 113,-113v0c62.40818,0 113,50.59182 113,113v0c0,62.40818 -50.59182,113 -113,113z" fill="none"></path><path d="M113,221.48c-59.91185,0 -108.48,-48.56815 -108.48,-108.48v0c0,-59.91185 48.56815,-108.48 108.48,-108.48h0c59.91185,0 108.48,48.56815 108.48,108.48v0c0,59.91185 -48.56815,108.48 -108.48,108.48z" fill="none"></path><path d="M113,226c-62.40818,0 -113,-50.59182 -113,-113v0c0,-62.40818 50.59182,-113 113,-113v0c62.40818,0 113,50.59182 113,113v0c0,62.40818 -50.59182,113 -113,113z" fill="none"></path><path d="M113,221.48c-59.91185,0 -108.48,-48.56815 -108.48,-108.48v0c0,-59.91185 48.56815,-108.48 108.48,-108.48h0c59.91185,0 108.48,48.56815 108.48,108.48v0c0,59.91185 -48.56815,108.48 -108.48,108.48z" fill="none"></path><path d="M113,226c-62.40818,0 -113,-50.59182 -113,-113v0c0,-62.40818 50.59182,-113 113,-113v0c62.40818,0 113,50.59182 113,113v0c0,62.40818 -50.59182,113 -113,113z" fill="none"></path><path d="M113,221.48c-59.91185,0 -108.48,-48.56815 -108.48,-108.48v0c0,-59.91185 48.56815,-108.48 108.48,-108.48h0c59.91185,0 108.48,48.56815 108.48,108.48v0c0,59.91185 -48.56815,108.48 -108.48,108.48z" fill="none"></path><path d="M113,226c-62.40818,0 -113,-50.59182 -113,-113v0c0,-62.40818 50.59182,-113 113,-113v0c62.40818,0 113,50.59182 113,113v0c0,62.40818 -50.59182,113 -113,113z" fill="none"></path><path d="M113,221.48c-59.91185,0 -108.48,-48.56815 -108.48,-108.48v0c0,-59.91185 48.56815,-108.48 108.48,-108.48h0c59.91185,0 108.48,48.56815 108.48,108.48v0c0,59.91185 -48.56815,108.48 -108.48,108.48z" fill="none"></path><path d="M113,226c-62.40818,0 -113,-50.59182 -113,-113v0c0,-62.40818 50.59182,-113 113,-113v0c62.40818,0 113,50.59182 113,113v0c0,62.40818 -50.59182,113 -113,113z" fill="none"></path><path d="M113,221.48c-59.91185,0 -108.48,-48.56815 -108.48,-108.48v0c0,-59.91185 48.56815,-108.48 108.48,-108.48h0c59.91185,0 108.48,48.56815 108.48,108.48v0c0,59.91185 -48.56815,108.48 -108.48,108.48z" fill="none"></path><path d="M113,226c-62.40818,0 -113,-50.59182 -113,-113v0c0,-62.40818 50.59182,-113 113,-113v0c62.40818,0 113,50.59182 113,113v0c0,62.40818 -50.59182,113 -113,113z" fill="none"></path><path d="M113,221.48c-59.91185,0 -108.48,-48.56815 -108.48,-108.48v0c0,-59.91185 48.56815,-108.48 108.48,-108.48h0c59.91185,0 108.48,48.56815 108.48,108.48v0c0,59.91185 -48.56815,108.48 -108.48,108.48z" fill="none"></path><path d="M113,226c-62.40818,0 -113,-50.59182 -113,-113v0c0,-62.40818 50.59182,-113 113,-113v0c62.40818,0 113,50.59182 113,113v0c0,62.40818 -50.59182,113 -113,113z" fill="none"></path><path d="M113,221.48c-59.91185,0 -108.48,-48.56815 -108.48,-108.48v0c0,-59.91185 48.56815,-108.48 108.48,-108.48h0c59.91185,0 108.48,48.56815 108.48,108.48v0c0,59.91185 -48.56815,108.48 -108.48,108.48z" fill="none"></path><path d="M113,226c-62.40818,0 -113,-50.59182 -113,-113v0c0,-62.40818 50.59182,-113 113,-113v0c62.40818,0 113,50.59182 113,113v0c0,62.40818 -50.59182,113 -113,113z" fill="none"></path><path d="M113,221.48c-59.91185,0 -108.48,-48.56815 -108.48,-108.48v0c0,-59.91185 48.56815,-108.48 108.48,-108.48h0c59.91185,0 108.48,48.56815 108.48,108.48v0c0,59.91185 -48.56815,108.48 -108.48,108.48z" fill="none"></path></g></svg>