<svg xmlns="http://www.w3.org/2000/svg" x="0px" y="0px"
width="50" height="50"
viewBox="0 0 226 226"
style=" fill:#000000;"><g fill="none" fill-rule="nonzero" stroke="none" stroke-width="1" stroke-linecap="butt" stroke-linejoin="miter" stroke-miterlimit="10" stroke-dasharray="" stroke-dashoffset="0" font-family="none" font-weight="none" font-size="none" text-anchor="none" style="mix-blend-mode: normal"><path d="M0,226v-226h226v226z" fill="none"></path><path d="M0,113c0,-62.40818 50.59182,-113 113,-113c62.40818,0 113,50.59182 113,113c0,62.40818 -50.59182,113 -113,113c-62.40818,0 -113,-50.59182 -113,-113zM113,221.48c59.91185,0 108.48,-48.56815 108.48,-108.48c0,-59.91185 -48.56815,-108.48 -108.48,-108.48c-59.91185,0 -108.48,48.56815 -108.48,108.48c0,59.91185 48.56815,108.48 108.48,108.48z" fill="#000000"></path><g fill="#000000"><path d="M88.1852,52.3416c-19.76228,0 -35.8436,16.08132 -35.8436,35.8436v49.6296c0,19.76228 16.08132,35.8436 35.8436,35.8436h49.6296c19.76228,0 35.8436,-16.08132 35.8436,-35.8436v-49.6296c0,-19.76228 -16.08132,-35.8436 -35.8436,-35.8436zM88.1852,57.856h49.6296c16.78165,0 30.3292,13.54755 30.3292,30.3292v49.6296c0,16.78165 -13.54755,30.3292 -30.3292,30.3292h-49.6296c-16.78165,0 -30.3292,-13.54755 -30.3292,-30.3292v-49.6296c0,-16.78165 13.54755,-30.3292 30.3292,-30.3292zM146.0864,74.3992c-3.04552,0 -5.5144,2.46888 -5.5144,5.5144c0,3.04552 2.46888,5.5144 5.5144,5.5144c3.04552,0 5.5144,-2.46888 5.5144,-5.5144c0,-3.04552 -2.46888,-5.5144 -5.5144,-5.5144zM113,82.6708c-16.7177,0 -30.3292,13.6115 -30.3292,30.3292c0,16.7177 13.6115,30.3292 30.3292,30.3292c16.7177,0 30.3292,-13.6115 30.3292,-30.3292c0,-16.7177 -13.6115,-30.3292 -30.3292,-30.3292zM113,88.1852c13.73749,0 24.8148,11.07731 24.8148,24.8148c0,13.73749 -11.07731,24.8148 -24.8148,24.8148c-13.73749,0 -24.8148,-11.07731 -24.8148,-24.8148c0,-13.73749 11.07731,-24.8148 24.8148,-24.8148z"></path></g><path d="M0,226v-226h226v226z" fill="none"></path><path d="M4.52,221.48v-216.96h216.96v216.96z" fill="none"></path><path d="M0,226v-226h226v226z" fill="none"></path><path d="M9.04,216.96v-207.92h207.92v207.92z" fill="none"></path><path d="M0,226v-226h226v226z" fill="none"></path><path d="M22.6,203.4v-180.8h180.8v180.8z" fill="none"></path><path d="M0,226v-226h226v226z" fill="none"></path><path d="M31.64,194.36v-162.72h162.72v162.72z" fill="none"></path><path d="M0,226v-226h226v226z" fill="none"></path><path d="M36.16,189.84v-153.68h153.68v153.68z" fill="none"></path><path d="M0,226v-226h226v226z" fill="none"></path><path d="M31.64,194.36v-162.72h162.72v162.72z" fill="none"></path><path d="M0,226v-226h226v226z" fill="none"></path><path d="M4.52,221.48v-216.96h216.96v216.96z" fill="none"></path><path d="M2.26,226c-1.24816,0 -2.26,-1.01184 -2.26,-2.26v-221.48c0,-1.24816 1.01184,-2.26 2.26,-2.26h221.48c1.24816,0 2.26,1.01184 2.26,2.26v221.48c0,1.24816 -1.01184,2.26 -2.26,2.26z" fill="none"></path><path d="M6.78,221.48c-1.24816,0 -2.26,-1.01184 -2.26,-2.26v-212.44c0,-1.24816 1.01184,-2.26 2.26,-2.26h212.44c1.24816,0 2.26,1.01184 2.26,2.26v212.44c0,1.24816 -1.01184,2.26 -2.26,2.26z" fill="none"></path><path d="M47.46,226c-26.21143,0 -47.46,-21.24857 -47.46,-47.46v-131.08c0,-26.21143 21.24857,-47.46 47.46,-47.46h131.08c26.21143,0 47.46,21.24857 47.46,47.46v131.08c0,26.21143 -21.24857,47.46 -47.46,47.46z" fill="none"></path><path d="M51.98,221.48c-26.21143,0 -47.46,-21.24857 -47.46,-47.46v-122.04c0,-26.21143 21.24857,-47.46 47.46,-47.46h122.04c26.21143,0 47.46,21.24857 47.46,47.46v122.04c0,26.21143 -21.24857,47.46 -47.46,47.46z" fill="none"></path><path d="M51.98,226c-28.70776,0 -51.98,-23.27224 -51.98,-51.98v-122.04c0,-28.70776 23.27224,-51.98 51.98,-51.98h122.04c28.70776,0 51.98,23.27224 51.98,51.98v122.04c0,28.70776 -23.27224,51.98 -51.98,51.98z" fill="none"></path><path d="M56.5,221.48c-28.70776,0 -51.98,-23.27224 -51.98,-51.98v-113c0,-28.70776 23.27224,-51.98 51.98,-51.98h113c28.70776,0 51.98,23.27224 51.98,51.98v113c0,28.70776 -23.27224,51.98 -51.98,51.98z" fill="none"></path><path d="M54.24,226c-29.95592,0 -54.24,-24.28408 -54.24,-54.24v-117.52c0,-29.95592 24.28408,-54.24 54.24,-54.24h117.52c29.95592,0 54.24,24.28408 54.24,54.24v117.52c0,29.95592 -24.28408,54.24 -54.24,54.24z" fill="none"></path><path d="M58.76,221.48c-29.95592,0 -54.24,-24.28408 -54.24,-54.24v-108.48c0,-29.95592 24.28408,-54.24 54.24,-54.24h108.48c29.95592,0 54.24,24.28408 54.24,54.24v108.48c0,29.95592 -24.28408,54.24 -54.24,54.24z" fill="none"></path><path d="M55.37,226c-30.58001,0 -55.37,-24.78999 -55.37,-55.37v-115.26c0,-30.58001 24.78999,-55.37 55.37,-55.37h115.26c30.58001,0 55.37,24.78999 55.37,55.37v115.26c0,30.58001 -24.78999,55.37 -55.37,55.37z" fill="none"></path><path d="M59.89,221.48c-30.58001,0 -55.37,-24.78999 -55.37,-55.37v-106.22c0,-30.58001 24.78999,-55.37 55.37,-55.37h106.22c30.58001,0 55.37,24.78999 55.37,55.37v106.22c0,30.58001 -24.78999,55.37 -55.37,55.37z" fill="none"></path><path d="M59.89,226c-33.07633,0 -59.89,-26.81367 -59.89,-59.89v-106.22c0,-33.07633 26.81367,-59.89 59.89,-59.89h106.22c33.07633,0 59.89,26.81367 59.89,59.89v106.22c0,33.07633 -26.81367,59.89 -59.89,59.89z" fill="none"></path><path d="M64.41,221.48c-33.07633,0 -59.89,-26.81367 -59.89,-59.89v-97.18c0,-33.07633 26.81367,-59.89 59.89,-59.89h97.18c33.07633,0 59.89,26.81367 59.89,59.89v97.18c0,33.07633 -26.81367,59.89 -59.89,59.89z" fill="none"></path><path d="M63.28,226c-34.94858,0 -63.28,-28.33142 -63.28,-63.28v-99.44c0,-34.94858 28.33142,-63.28 63.28,-63.28h99.44c34.94858,0 63.28,28.33142 63.28,63.28v99.44c0,34.94858 -28.33142,63.28 -63.28,63.28z" fill="none"></path><path d="M67.8,221.48c-34.94858,0 -63.28,-28.33142 -63.28,-63.28v-90.4c0,-34.94858 28.33142,-63.28 63.28,-63.28h90.4c34.94858,0 63.28,28.33142 63.28,63.28v90.4c0,34.94858 -28.33142,63.28 -63.28,63.28z" fill="none"></path><path d="M64.41,226c-35.57266,0 -64.41,-28.83734 -64.41,-64.41v-97.18c0,-35.57266 28.83734,-64.41 64.41,-64.41h97.18c35.57266,0 64.41,28.83734 64.41,64.41v97.18c0,35.57266 -28.83734,64.41 -64.41,64.41z" fill="none"></path><path d="M68.93,221.48c-35.57266,0 -64.41,-28.83734 -64.41,-64.41v-88.14c0,-35.57266 28.83734,-64.41 64.41,-64.41h88.14c35.57266,0 64.41,28.83734 64.41,64.41v88.14c0,35.57266 -28.83734,64.41 -64.41,64.41z" fill="none"></path><path d="M65.54,226c-36.19674,0 -65.54,-29.34326 -65.54,-65.54v-94.92c0,-36.19674 29.34326,-65.54 65.54,-65.54h94.92c36.19674,0 65.54,29.34326 65.54,65.54v94.92c0,36.19674 -29.34326,65.54 -65.54,65.54z" fill="none"></path><path d="M70.06,221.48c-36.19674,0 -65.54,-29.34326 -65.54,-65.54v-85.88c0,-36.19674 29.34326,-65.54 65.54,-65.54h85.88c36.19674,0 65.54,29.34326 65.54,65.54v85.88c0,36.19674 -29.34326,65.54 -65.54,65.54z" fill="none"></path><path d="M74.58,226c-41.1894,0 -74.58,-33.3906 -74.58,-74.58v-76.84c0,-41.1894 33.3906,-74.58 74.58,-74.58h76.84c41.1894,0 74.58,33.3906 74.58,74.58v76.84c0,41.1894 -33.3906,74.58 -74.58,74.58z" fill="none"></path><path d="M79.1,221.48c-41.1894,0 -74.58,-33.3906 -74.58,-74.58v-67.8c0,-41.1894 33.3906,-74.58 74.58,-74.58h67.8c41.1894,0 74.58,33.3906 74.58,74.58v67.8c0,41.1894 -33.3906,74.58 -74.58,74.58z" fill="none"></path><path d="M81.36,226c-44.93389,0 -81.36,-36.42611 -81.36,-81.36v-63.28c0,-44.93389 36.42611,-81.36 81.36,-81.36h63.28c44.93389,0 81.36,36.42611 81.36,81.36v63.28c0,44.93389 -36.42611,81.36 -81.36,81.36z" fill="none"></path><path d="M85.88,221.48c-44.93389,0 -81.36,-36.42611 -81.36,-81.36v-54.24c0,-44.93389 36.42611,-81.36 81.36,-81.36h54.24c44.93389,0 81.36,36.42611 81.36,81.36v54.24c0,44.93389 -36.42611,81.36 -81.36,81.36z" fill="none"></path><path d="M85.88,226c-47.43021,0 -85.88,-38.44979 -85.88,-85.88v-54.24c0,-47.43021 38.44979,-85.88 85.88,-85.88h54.24c47.43021,0 85.88,38.44979 85.88,85.88v54.24c0,47.43021 -38.44979,85.88 -85.88,85.88z" fill="none"></path><path d="M90.4,221.48c-47.43021,0 -85.88,-38.44979 -85.88,-85.88v-45.2c0,-47.43021 38.44979,-85.88 85.88,-85.88h45.2c47.43021,0 85.88,38.44979 85.88,85.88v45.2c0,47.43021 -38.44979,85.88 -85.88,85.88z" fill="none"></path><path d="M92.66,226c-51.1747,0 -92.66,-41.4853 -92.66,-92.66v-40.68c0,-51.1747 41.4853,-92.66 92.66,-92.66h40.68c51.1747,0 92.66,41.4853 92.66,92.66v40.68c0,51.1747 -41.4853,92.66 -92.66,92.66z" fill="none"></path><path d="M97.18,221.48c-51.1747,0 -92.66,-41.4853 -92.66,-92.66v-31.64c0,-51.1747 41.4853,-92.66 92.66,-92.66h31.64c51.1747,0 92.66,41.4853 92.66,92.66v31.64c0,51.1747 -41.4853,92.66 -92.66,92.66z" fill="none"></path><path d="M100.57,226c-55.54328,0 -100.57,-45.02672 -100.57,-100.57v-24.86c0,-55.54328 45.02672,-100.57 100.57,-100.57h24.86c55.54328,0 100.57,45.02672 100.57,100.57v24.86c0,55.54328 -45.02672,100.57 -100.57,100.57z" fill="none"></path><path d="M105.09,221.48c-55.54328,0 -100.57,-45.02672 -100.57,-100.57v-15.82c0,-55.54328 45.02672,-100.57 100.57,-100.57h15.82c55.54328,0 100.57,45.02672 100.57,100.57v15.82c0,55.54328 -45.02672,100.57 -100.57,100.57z" fill="none"></path><path d="M102.83,226c-56.79144,0 -102.83,-46.03856 -102.83,-102.83v-20.34c0,-56.79144 46.03856,-102.83 102.83,-102.83h20.34c56.79144,0 102.83,46.03856 102.83,102.83v20.34c0,56.79144 -46.03856,102.83 -102.83,102.83z" fill="none"></path><path d="M107.35,221.48c-56.79144,0 -102.83,-46.03856 -102.83,-102.83v-11.3c0,-56.79144 46.03856,-102.83 102.83,-102.83h11.3c56.79144,0 102.83,46.03856 102.83,102.83v11.3c0,56.79144 -46.03856,102.83 -102.83,102.83z" fill="none"></path><path d="M106.22,226c-58.66369,0 -106.22,-47.55631 -106.22,-106.22v-13.56c0,-58.66369 47.55631,-106.22 106.22,-106.22h13.56c58.66369,0 106.22,47.55631 106.22,106.22v13.56c0,58.66369 -47.55631,106.22 -106.22,106.22z" fill="none"></path><path d="M110.74,221.48c-58.66369,0 -106.22,-47.55631 -106.22,-106.22v-4.52c0,-58.66369 47.55631,-106.22 106.22,-106.22h4.52c58.66369,0 106.22,47.55631 106.22,106.22v4.52c0,58.66369 -47.55631,106.22 -106.22,106.22z" fill="none"></path><path d="M113,226c-62.40818,0 -113,-50.59182 -113,-113v0c0,-62.40818 50.59182,-113 113,-113v0c62.40818,0 113,50.59182 113,113v0c0,62.40818 -50.59182,113 -113,113z" fill="none"></path><path d="M113,221.48c-59.91185,0 -108.48,-48.56815 -108.48,-108.48v0c0,-59.91185 48.56815,-108.48 108.48,-108.48h0c59.91185,0 108.48,48.56815 108.48,108.48v0c0,59.91185 -48.56815,108.48 -108.48,108.48z" fill="none"></path><path d="M113,226c-62.40818,0 -113,-50.59182 -113,-113v0c0,-62.40818 50.59182,-113 113,-113v0c62.40818,0 113,50.59182 113,113v0c0,62.40818 -50.59182,113 -113,113z" fill="none"></path><path d="M113,221.48c-59.91185,0 -108.48,-48.56815 -108.48,-108.48v0c0,-59.91185 48.56815,-108.48 108.48,-108.48h0c59.91185,0 108.48,48.56815 108.48,108.48v0c0,59.91185 -48.56815,108.48 -108.48,108.48z" fill="none"></path><path d="M113,226c-62.40818,0 -113,-50.59182 -113,-113v0c0,-62.40818 50.59182,-113 113,-113v0c62.40818,0 113,50.59182 113,113v0c0,62.40818 -50.59182,113 -113,113z" fill="none"></path><path d="M113,221.48c-59.91185,0 -108.48,-48.56815 -108.48,-108.48v0c0,-59.91185 48.56815,-108.48 108.48,-108.48h0c59.91185,0 108.48,48.56815 108.48,108.48v0c0,59.91185 -48.56815,108.48 -108.48,108.48z" fill="none"></path><path d="M113,226c-62.40818,0 -113,-50.59182 -113,-113v0c0,-62.40818 50.59182,-113 113,-113v0c62.40818,0 113,50.59182 113,113v0c0,62.40818 -50.59182,113 -113,113z" fill="none"></path><path d="M113,221.48c-59.91185,0 -108.48,-48.56815 -108.48,-108.48v0c0,-59.91185 48.56815,-108.48 108.48,-108.48h0c59.91185,0 108.48,48.56815 108.48,108.48v0c0,59.91185 -48.56815,108.48 -108.48,108.48z" fill="none"></path><path d="M113,226c-62.40818,0 -113,-50.59182 -113,-113v0c0,-62.40818 50.59182,-113 113,-113v0c62.40818,0 113,50.59182 113,113v0c0,62.40818 -50.59182,113 -113,113z" fill="none"></path><path d="M113,216.96c-57.41552,0 -103.96,-46.54448 -103.96,-103.96v0c0,-57.41552 46.54448,-103.96 103.96,-103.96v0c57.41552,0 103.96,46.54448 103.96,103.96v0c0,57.41552 -46.54448,103.96 -103.96,103.96z" fill="none"></path><path d="M113,226c-62.40818,0 -113,-50.59182 -113,-113v0c0,-62.40818 50.59182,-113 113,-113v0c62.40818,0 113,50.59182 113,113v0c0,62.40818 -50.59182,113 -113,113z" fill="none"></path><path d="M113,207.92c-52.42287,0 -94.92,-42.49713 -94.92,-94.92v0c0,-52.42287 42.49713,-94.92 94.92,-94.92h0c52.42287,0 94.92,42.49713 94.92,94.92v0c0,52.42287 -42.49713,94.92 -94.92,94.92z" fill="none"></path><path d="M113,226c-62.40818,0 -113,-50.59182 -113,-113v0c0,-62.40818 50.59182,-113 113,-113v0c62.40818,0 113,50.59182 113,113v0c0,62.40818 -50.59182,113 -113,113z" fill="none"></path><path d="M113,198.88c-47.43021,0 -85.88,-38.44979 -85.88,-85.88v0c0,-47.43021 38.44979,-85.88 85.88,-85.88v0c47.43021,0 85.88,38.44979 85.88,85.88v0c0,47.43021 -38.44979,85.88 -85.88,85.88z" fill="none"></path><path d="M113,226c-62.40818,0 -113,-50.59182 -113,-113v0c0,-62.40818 50.59182,-113 113,-113v0c62.40818,0 113,50.59182 113,113v0c0,62.40818 -50.59182,113 -113,113z" fill="none"></path><path d="M113,194.36c-44.93389,0 -81.36,-36.42611 -81.36,-81.36v0c0,-44.93389 36.42611,-81.36 81.36,-81.36h0c44.93389,0 81.36,36.42611 81.36,81.36v0c0,44.93389 -36.42611,81.36 -81.36,81.36z" fill="none"></path><path d="M113,226c-62.40818,0 -113,-50.59182 -113,-113v0c0,-62.40818 50.59182,-113 113,-113v0c62.40818,0 113,50.59182 113,113v0c0,62.40818 -50.59182,113 -113,113z" fill="none"></path><path d="M113,189.84c-42.43756,0 -76.84,-34.40244 -76.84,-76.84v0c0,-42.43756 34.40244,-76.84 76.84,-76.84v0c42.43756,0 76.84,34.40244 76.84,76.84v0c0,42.43756 -34.40244,76.84 -76.84,76.84z" fill="none"></path><path d="M113,226c-62.40818,0 -113,-50.59182 -113,-113v0c0,-62.40818 50.59182,-113 113,-113v0c62.40818,0 113,50.59182 113,113v0c0,62.40818 -50.59182,113 -113,113z" fill="none"></path><path d="M113,194.36c-44.93389,0 -81.36,-36.42611 -81.36,-81.36v0c0,-44.93389 36.42611,-81.36 81.36,-81.36h0c44.93389,0 81.36,36.42611 81.36,81.36v0c0,44.93389 -36.42611,81.36 -81.36,81.36z" fill="none"></path><path d="M113,226c-62.40818,0 -113,-50.59182 -113,-113v0c0,-62.40818 50.59182,-113 113,-113v0c62.40818,0 113,50.59182 113,113v0c0,62.40818 -50.59182,113 -113,113z" fill="none"></path><path d="M113,221.48c-59.91185,0 -108.48,-48.56815 -108.48,-108.48v0c0,-59.91185 48.56815,-108.48 108.48,-108.48h0c59.91185,0 108.48,48.56815 108.48,108.48v0c0,59.91185 -48.56815,108.48 -108.48,108.48z" fill="none"></path><path d="M113,226c-62.40818,0 -113,-50.59182 -113,-113v0c0,-62.40818 50.59182,-113 113,-113v0c62.40818,0 113,50.59182 113,113v0c0,62.40818 -50.59182,113 -113,113z" fill="none"></path><path d="M113,221.48c-59.91185,0 -108.48,-48.56815 -108.48,-108.48v0c0,-59.91185 48.56815,-108.48 108.48,-108.48h0c59.91185,0 108.48,48.56815 108.48,108.48v0c0,59.91185 -48.56815,108.48 -108.48,108.48z" fill="none"></path><path d="M113,226c-62.40818,0 -113,-50.59182 -113,-113v0c0,-62.40818 50.59182,-113 113,-113v0c62.40818,0 113,50.59182 113,113v0c0,62.40818 -50.59182,113 -113,113z" fill="none"></path><path d="M113,221.48c-59.91185,0 -108.48,-48.56815 -108.48,-108.48v0c0,-59.91185 48.56815,-108.48 108.48,-108.48h0c59.91185,0 108.48,48.56815 108.48,108.48v0c0,59.91185 -48.56815,108.48 -108.48,108.48z" fill="none"></path><path d="M113,226c-62.40818,0 -113,-50.59182 -113,-113v0c0,-62.40818 50.59182,-113 113,-113v0c62.40818,0 113,50.59182 113,113v0c0,62.40818 -50.59182,113 -113,113z" fill="none"></path><path d="M113,221.48c-59.91185,0 -108.48,-48.56815 -108.48,-108.48v0c0,-59.91185 48.56815,-108.48 108.48,-108.48h0c59.91185,0 108.48,48.56815 108.48,108.48v0c0,59.91185 -48.56815,108.48 -108.48,108.48z" fill="none"></path><path d="M113,226c-62.40818,0 -113,-50.59182 -113,-113v0c0,-62.40818 50.59182,-113 113,-113v0c62.40818,0 113,50.59182 113,113v0c0,62.40818 -50.59182,113 -113,113z" fill="none"></path><path d="M113,221.48c-59.91185,0 -108.48,-48.56815 -108.48,-108.48v0c0,-59.91185 48.56815,-108.48 108.48,-108.48h0c59.91185,0 108.48,48.56815 108.48,108.48v0c0,59.91185 -48.56815,108.48 -108.48,108.48z" fill="none"></path><path d="M113,226c-62.40818,0 -113,-50.59182 -113,-113v0c0,-62.40818 50.59182,-113 113,-113v0c62.40818,0 113,50.59182 113,113v0c0,62.40818 -50.59182,113 -113,113z" fill="none"></path><path d="M113,221.48c-59.91185,0 -108.48,-48.56815 -108.48,-108.48v0c0,-59.91185 48.56815,-108.48 108.48,-108.48h0c59.91185,0 108.48,48.56815 108.48,108.48v0c0,59.91185 -48.56815,108.48 -108.48,108.48z" fill="none"></path><path d="M113,226c-62.40818,0 -113,-50.59182 -113,-113v0c0,-62.40818 50.59182,-113 113,-113v0c62.40818,0 113,50.59182 113,113v0c0,62.40818 -50.59182,113 -113,113z" fill="none"></path><path d="M113,221.48c-59.91185,0 -108.48,-48.56815 -108.48,-108.48v0c0,-59.91185 48.56815,-108.48 108.48,-108.48h0c59.91185,0 108.48,48.56815 108.48,108.48v0c0,59.91185 -48.56815,108.48 -108.48,108.48z" fill="none"></path><path d="M113,226c-62.40818,0 -113,-50.59182 -113,-113v0c0,-62.40818 50.59182,-113 113,-113v0c62.40818,0 113,50.59182 113,113v0c0,62.40818 -50.59182,113 -113,113z" fill="none"></path><path d="M113,221.48c-59.91185,0 -108.48,-48.56815 -108.48,-108.48v0c0,-59.91185 48.56815,-108.48 108.48,-108.48h0c59.91185,0 108.48,48.56815 108.48,108.48v0c0,59.91185 -48.56815,108.48 -108.48,108.48z" fill="none"></path><path d="M113,226c-62.40818,0 -113,-50.59182 -113,-113v0c0,-62.40818 50.59182,-113 113,-113v0c62.40818,0 113,50.59182 113,113v0c0,62.40818 -50.59182,113 -113,113z" fill="none"></path><path d="M113,221.48c-59.91185,0 -108.48,-48.56815 -108.48,-108.48v0c0,-59.91185 48.56815,-108.48 108.48,-108.48h0c59.91185,0 108.48,48.56815 108.48,108.48v0c0,59.91185 -48.56815,108.48 -108.48,108.48z" fill="none"></path><path d="M113,226c-62.40818,0 -113,-50.59182 -113,-113v0c0,-62.40818 50.59182,-113 113,-113v0c62.40818,0 113,50.59182 113,113v0c0,62.40818 -50.59182,113 -113,113z" fill="none"></path><path d="M113,221.48c-59.91185,0 -108.48,-48.56815 -108.48,-108.48v0c0,-59.91185 48.56815,-108.48 108.48,-108.48h0c59.91185,0 108.48,48.56815 108.48,108.48v0c0,59.91185 -48.56815,108.48 -108.48,108.48z" fill="none"></path><path d="M113,226c-62.40818,0 -113,-50.59182 -113,-113v0c0,-62.40818 50.59182,-113 113,-113v0c62.40818,0 113,50.59182 113,113v0c0,62.40818 -50.59182,113 -113,113z" fill="none"></path><path d="M113,221.48c-59.91185,0 -108.48,-48.56815 -108.48,-108.48v0c0,-59.91185 48.56815,-108.48 108.48,-108.48h0c59.91185,0 108.48,48.56815 108.48,108.48v0c0,59.91185 -48.56815,108.48 -108.48,108.48z" fill="none"></path><path d="M113,226c-62.40818,0 -113,-50.59182 -113,-113v0c0,-62.40818 50.59182,-113 113,-113v0c62.40818,0 113,50.59182 113,113v0c0,62.40818 -50.59182,113 -113,113z" fill="none"></path><path d="M113,221.48c-59.91185,0 -108.48,-48.56815 -108.48,-108.48v0c0,-59.91185 48.56815,-108.48 108.48,-108.48h0c59.91185,0 108.48,48.56815 108.48,108.48v0c0,59.91185 -48.56815,108.48 -108.48,108.48z" fill="none"></path><path d="M113,226c-62.40818,0 -113,-50.59182 -113,-113v0c0,-62.40818 50.59182,-113 113,-113v0c62.40818,0 113,50.59182 113,113v0c0,62.40818 -50.59182,113 -113,113z" fill="none"></path><path d="M113,221.48c-59.91185,0 -108.48,-48.56815 -108.48,-108.48v0c0,-59.91185 48.56815,-108.48 108.48,-108.48h0c59.91185,0 108.48,48.56815 108.48,108.48v0c0,59.91185 -48.56815,108.48 -108.48,108.48z" fill="none"></path><path d="M113,226c-62.40818,0 -113,-50.59182 -113,-113v0c0,-62.40818 50.59182,-113 113,-113v0c62.40818,0 113,50.59182 113,113v0c0,62.40818 -50.59182,113 -113,113z" fill="none"></path><path d="M113,221.48c-59.91185,0 -108.48,-48.56815 -108.48,-108.48v0c0,-59.91185 48.56815,-108.48 108.48,-108.48h0c59.91185,0 108.48,48.56815 108.48,108.48v0c0,59.91185 -48.56815,108.48 -108.48,108.48z" fill="none"></path></g></svg>