<svg xmlns="http://www.w3.org/2000/svg" x="0px" y="0px"
width="50" height="50"
viewBox="0 0 226 226"
style=" fill:#000000;"><g fill="none" fill-rule="nonzero" stroke="none" stroke-width="1" stroke-linecap="butt" stroke-linejoin="miter" stroke-miterlimit="10" stroke-dasharray="" stroke-dashoffset="0" font-family="none" font-weight="none" font-size="none" text-anchor="none" style="mix-blend-mode: normal"><path d="M0,226v-226h226v226z" fill="none"></path><path d="M0,113c0,-62.40818 50.59182,-113 113,-113c62.40818,0 113,50.59182 113,113c0,62.40818 -50.59182,113 -113,113c-62.40818,0 -113,-50.59182 -113,-113zM113,221.48c59.91185,0 108.48,-48.56815 108.48,-108.48c0,-59.91185 -48.56815,-108.48 -108.48,-108.48c-59.91185,0 -108.48,48.56815 -108.48,108.48c0,59.91185 48.56815,108.48 108.48,108.48z" fill="#000000"></path><g fill="#000000"><path d="M171.92059,80.8979c-4.34343,1.92837 -8.99907,3.22314 -13.89346,3.81083c4.9954,-2.99357 8.83378,-7.73185 10.63359,-13.37004c-4.66482,2.764 -9.85306,4.77502 -15.35351,5.85858c-4.40771,-4.70155 -10.68869,-7.63084 -17.64001,-7.63084c-13.35168,0 -24.17811,10.81725 -24.17811,24.16893c0,1.89164 0.22039,3.73737 0.63361,5.50963c-20.0918,-1.0101 -37.8971,-10.63359 -49.82545,-25.26167c-2.08448,3.58126 -3.26905,7.73185 -3.26905,12.15793c0,8.38383 4.26078,15.7851 10.75297,20.12853c-3.96694,-0.12856 -7.69512,-1.2213 -10.95499,-3.0303c0,0.10101 0,0.20202 0,0.30303c0,11.71715 8.33791,21.47839 19.38473,23.70979c-2.0202,0.55096 -4.15977,0.84481 -6.36363,0.84481c-1.56106,0 -3.07621,-0.14692 -4.55463,-0.44077c3.08539,9.59594 12.011,16.60236 22.58031,16.7952c-8.26445,6.483 -18.68684,10.33975 -30.01832,10.33975c-1.95592,0 -3.87511,-0.11019 -5.75757,-0.33976c10.68869,6.86868 23.39758,10.86316 37.05229,10.86316c44.46275,0 68.7786,-36.8319 68.7786,-68.76941c0,-1.04683 -0.02755,-2.10284 -0.06428,-3.13131c4.71992,-3.40679 8.81541,-7.66757 12.05691,-12.51605z"></path></g><path d="M113,226c-62.40818,0 -113,-50.59182 -113,-113v0c0,-62.40818 50.59182,-113 113,-113v0c62.40818,0 113,50.59182 113,113v0c0,62.40818 -50.59182,113 -113,113z" fill="none"></path><path d="M113,221.48c-59.91185,0 -108.48,-48.56815 -108.48,-108.48v0c0,-59.91185 48.56815,-108.48 108.48,-108.48h0c59.91185,0 108.48,48.56815 108.48,108.48v0c0,59.91185 -48.56815,108.48 -108.48,108.48z" fill="none"></path><path d="M113,226c-62.40818,0 -113,-50.59182 -113,-113v0c0,-62.40818 50.59182,-113 113,-113v0c62.40818,0 113,50.59182 113,113v0c0,62.40818 -50.59182,113 -113,113z" fill="none"></path><path d="M113,221.48c-59.91185,0 -108.48,-48.56815 -108.48,-108.48v0c0,-59.91185 48.56815,-108.48 108.48,-108.48h0c59.91185,0 108.48,48.56815 108.48,108.48v0c0,59.91185 -48.56815,108.48 -108.48,108.48z" fill="none"></path></g></svg>